<?xml version="1.0" standalone="no"?>
<!DOCTYPE svg PUBLIC "-//W3C//DTD SVG 20010904//EN"
 "http://www.w3.org/TR/2001/REC-SVG-20010904/DTD/svg10.dtd">
<svg version="1.0" xmlns="http://www.w3.org/2000/svg"
 width="481.000000pt" height="481.000000pt" viewBox="0 0 481.000000 481.000000"
 preserveAspectRatio="xMidYMid meet">
<metadata>
Created by potrace 1.14, written by Peter Selinger 2001-2017
</metadata>
<g transform="translate(0.000000,481.000000) scale(0.100000,-0.100000)"
fill="#000000" stroke="none">
<path d="M2983 4778 c-15 -20 -29 -61 -73 -208 -35 -116 -240 -909 -254 -980
-3 -14 -17 -77 -31 -140 -14 -63 -29 -126 -31 -140 -3 -14 -18 -83 -34 -155
-42 -193 -60 -279 -60 -285 0 -3 -11 -46 -24 -96 -22 -81 -29 -122 -40 -246
-4 -47 9 -70 18 -32 6 23 9 26 16 13 5 -8 7 -24 6 -35 -2 -10 3 -35 10 -54 11
-30 19 -66 23 -103 2 -16 21 5 21 23 0 10 4 21 8 24 4 2 7 -23 5 -57 -3 -60
-2 -61 12 -32 8 17 14 40 15 53 0 15 4 21 12 16 7 -5 9 -2 6 7 -10 26 25 82
52 85 14 1 54 5 90 8 36 3 81 8 100 12 38 6 252 69 285 83 11 5 50 21 86 35
36 15 81 40 100 57 l34 29 -39 -15 c-66 -26 -72 -17 -15 23 30 22 53 44 52 50
-2 6 11 21 27 34 43 31 40 51 -5 32 -56 -23 -53 -16 10 23 57 36 64 58 8 30
-15 -8 -46 -18 -68 -21 -22 -4 -83 -23 -135 -42 -230 -87 -420 -144 -482 -144
-22 0 -28 5 -28 23 0 12 8 36 19 52 29 49 181 197 306 300 27 22 53 45 59 51
6 5 43 37 81 71 39 33 104 95 145 137 78 80 96 116 105 211 2 22 11 58 20 80
l16 40 -26 -30 -26 -30 16 33 c14 29 14 32 0 32 -12 0 -15 6 -10 21 6 18 4 19
-13 10 -11 -6 -35 -30 -53 -53 -27 -35 -114 -130 -185 -202 -18 -18 -83 -76
-174 -155 -47 -41 -87 -77 -90 -80 -9 -12 -97 -81 -102 -81 -6 0 10 88 42 230
12 52 23 104 25 115 3 12 25 109 49 215 40 174 69 290 176 710 33 127 37 185
17 251 -8 25 -13 74 -11 110 2 62 2 63 -12 34 l-15 -30 4 27 c2 16 -1 29 -9
32 -8 3 -11 12 -8 21 7 18 -10 20 -23 3z m-272 -1125 c-8 -15 -10 -15 -11 -2
0 17 10 32 18 25 2 -3 -1 -13 -7 -23z m-80 -304 c-5 -13 -10 -19 -10 -12 -1
15 10 45 15 40 3 -2 0 -15 -5 -28z"/>
<path d="M2329 3596 c-56 -23 -118 -61 -131 -81 -23 -33 -37 -50 -70 -86 -21
-22 -45 -55 -53 -72 -8 -18 -40 -59 -70 -92 -30 -33 -54 -64 -54 -70 0 -5 7
-1 17 10 9 11 26 27 37 35 11 8 7 -1 -10 -20 -16 -19 -36 -38 -42 -43 -7 -4
-18 -18 -24 -30 -9 -18 -9 -20 2 -9 19 18 31 15 21 -5 -26 -51 9 -34 117 55
140 117 250 197 258 188 15 -15 -81 -159 -306 -461 -225 -301 -254 -348 -264
-420 -6 -47 10 -90 48 -125 26 -24 32 -25 169 -26 165 -1 182 -8 214 -82 64
-149 45 -334 -62 -611 -40 -103 -139 -307 -162 -332 -8 -8 -14 -19 -14 -24 0
-13 -210 -322 -258 -381 -21 -25 -153 -205 -197 -269 -58 -83 -38 -70 57 38
78 88 90 89 22 1 -25 -32 -62 -84 -82 -114 -20 -30 -40 -61 -46 -69 -8 -11 -8
-13 2 -7 25 15 11 -13 -34 -68 -66 -79 -50 -89 25 -14 35 35 59 54 53 43 -11
-20 -48 -61 -141 -159 -41 -43 -43 -47 -16 -33 17 9 47 32 68 52 21 19 41 33
46 31 4 -3 23 11 42 31 30 32 31 34 9 24 l-25 -12 25 18 c91 62 343 358 485
568 157 233 289 489 360 700 49 144 68 250 68 385 0 146 -15 225 -58 310 -25
50 -94 119 -145 145 -31 16 -164 36 -186 28 -22 -8 -26 18 -8 45 9 15 76 105
148 200 72 96 138 183 146 195 8 12 21 29 30 37 31 30 124 180 168 271 72 148
65 261 -18 308 -48 27 -91 26 -161 -3z m-165 -1241 c11 -8 16 -15 10 -15 -5 0
-18 7 -28 15 -11 8 -16 15 -10 15 5 0 18 -7 28 -15z m83 -362 c-3 -10 -5 -2
-5 17 0 19 2 27 5 18 2 -10 2 -26 0 -35z m-779 -1627 c-7 -8 -15 -12 -17 -11
-5 6 10 25 20 25 5 0 4 -6 -3 -14z"/>
<path d="M1912 3089 c-12 -19 -11 -19 8 -9 11 6 20 15 20 20 0 17 -15 11 -28
-11z"/>
</g>
</svg>
